{
	"asset":{
		"generator":"Khronos glTF Blender I/O v4.0.44",
		"version":"2.0"
	},
	"scene":0,
	"scenes":[
		{
			"name":"Scene",
			"nodes":[
				1
			]
		}
	],
	"nodes":[
		{
			"mesh":0,
			"name":"node_id30",
			"scale":[
				0.005990802310407162,
				0.005990802310407162,
				0.005990802310407162
			],
			"translation":[
				-0.0011122317519038916,
				-0.12305938452482224,
				0.2626951038837433
			]
		},
		{
			"children":[
				0
			],
			"name":"root"
		}
	],
	"materials":[
		{
			"doubleSided":true,
			"name":"Material",
			"pbrMetallicRoughness":{
				"baseColorTexture":{
					"index":0
				},
				"metallicFactor":0,
				"roughnessFactor":0.5
			}
		}
	],
	"meshes":[
		{
			"name":"mesh_id31",
			"primitives":[
				{
					"attributes":{
						"POSITION":0,
						"NORMAL":1,
						"TEXCOORD_0":2
					},
					"indices":3,
					"material":0
				}
			]
		}
	],
	"textures":[
		{
			"sampler":0,
			"source":0
		}
	],
	"images":[
		{
			"mimeType":"image/png",
			"name":"Image_0",
			"uri":"Image_0.png"
		}
	],
	"accessors":[
		{
			"bufferView":0,
			"componentType":5126,
			"count":2605,
			"max":[
				38.228614807128906,
				63.273590087890625,
				55.25382614135742
			],
			"min":[
				-37.857295989990234,
				-22.190750122070312,
				-43.849571228027344
			],
			"type":"VEC3"
		},
		{
			"bufferView":1,
			"componentType":5126,
			"count":2605,
			"type":"VEC3"
		},
		{
			"bufferView":2,
			"componentType":5126,
			"count":2605,
			"type":"VEC2"
		},
		{
			"bufferView":3,
			"componentType":5123,
			"count":14550,
			"type":"SCALAR"
		}
	],
	"bufferViews":[
		{
			"buffer":0,
			"byteLength":31260,
			"byteOffset":0,
			"target":34962
		},
		{
			"buffer":0,
			"byteLength":31260,
			"byteOffset":31260,
			"target":34962
		},
		{
			"buffer":0,
			"byteLength":20840,
			"byteOffset":62520,
			"target":34962
		},
		{
			"buffer":0,
			"byteLength":29100,
			"byteOffset":83360,
			"target":34963
		}
	],
	"samplers":[
		{
			"magFilter":9729,
			"minFilter":9987
		}
	],
	"buffers":[
		{
			"byteLength":112460,
			"uri":"braingltf.bin"
		}
	]
}
