{
	"asset":{
		"generator":"Khronos glTF Blender I/O v4.0.44",
		"version":"2.0"
	},
	"scene":0,
	"scenes":[
		{
			"name":"Scene",
			"nodes":[
				1,
				3
			]
		}
	],
	"nodes":[
		{
			"mesh":0,
			"name":"node_id30",
			"scale":[
				0.005990802310407162,
				0.005990802310407162,
				0.005990802310407162
			],
			"translation":[
				-0.001112230122089386,
				-0.12305939197540283,
				0.2626951038837433
			]
		},
		{
			"children":[
				0
			],
			"name":"root",
			"translation":[
				-0.12004418671131134,
				0.029366385191679,
				-0.692844569683075
			]
		},
		{
			"mesh":1,
			"name":"node_id30.001",
			"scale":[
				0.005990802310407162,
				0.005990802310407162,
				0.005990802310407162
			],
			"translation":[
				-0.0011122317519038916,
				-0.12305938452482224,
				0.2626951038837433
			]
		},
		{
			"children":[
				2
			],
			"name":"root.001"
		}
	],
	"materials":[
		{
			"alphaCutoff":0.5,
			"alphaMode":"MASK",
			"doubleSided":true,
			"name":"49",
			"pbrMetallicRoughness":{}
		},
		{
			"alphaCutoff":0.5,
			"alphaMode":"MASK",
			"doubleSided":true,
			"name":"49.001",
			"pbrMetallicRoughness":{}
		}
	],
	"meshes":[
		{
			"name":"mesh_id31",
			"primitives":[
				{
					"attributes":{
						"POSITION":0,
						"NORMAL":1,
						"TEXCOORD_0":2
					},
					"indices":3,
					"material":0
				}
			]
		},
		{
			"name":"mesh_id31.001",
			"primitives":[
				{
					"attributes":{
						"POSITION":4,
						"NORMAL":5,
						"TEXCOORD_0":6
					},
					"indices":7,
					"material":1
				}
			]
		}
	],
	"accessors":[
		{
			"bufferView":0,
			"componentType":5126,
			"count":2605,
			"max":[
				38.228614807128906,
				63.273590087890625,
				55.25382614135742
			],
			"min":[
				-37.857295989990234,
				-22.190750122070312,
				-43.849571228027344
			],
			"type":"VEC3"
		},
		{
			"bufferView":1,
			"componentType":5126,
			"count":2605,
			"type":"VEC3"
		},
		{
			"bufferView":2,
			"componentType":5126,
			"count":2605,
			"type":"VEC2"
		},
		{
			"bufferView":3,
			"componentType":5123,
			"count":14550,
			"type":"SCALAR"
		},
		{
			"bufferView":4,
			"componentType":5126,
			"count":2605,
			"max":[
				38.228614807128906,
				63.273590087890625,
				55.25382614135742
			],
			"min":[
				-37.857295989990234,
				-22.190750122070312,
				-43.849571228027344
			],
			"type":"VEC3"
		},
		{
			"bufferView":5,
			"componentType":5126,
			"count":2605,
			"type":"VEC3"
		},
		{
			"bufferView":6,
			"componentType":5126,
			"count":2605,
			"type":"VEC2"
		},
		{
			"bufferView":7,
			"componentType":5123,
			"count":14550,
			"type":"SCALAR"
		}
	],
	"bufferViews":[
		{
			"buffer":0,
			"byteLength":31260,
			"byteOffset":0,
			"target":34962
		},
		{
			"buffer":0,
			"byteLength":31260,
			"byteOffset":31260,
			"target":34962
		},
		{
			"buffer":0,
			"byteLength":20840,
			"byteOffset":62520,
			"target":34962
		},
		{
			"buffer":0,
			"byteLength":29100,
			"byteOffset":83360,
			"target":34963
		},
		{
			"buffer":0,
			"byteLength":31260,
			"byteOffset":112460,
			"target":34962
		},
		{
			"buffer":0,
			"byteLength":31260,
			"byteOffset":143720,
			"target":34962
		},
		{
			"buffer":0,
			"byteLength":20840,
			"byteOffset":174980,
			"target":34962
		},
		{
			"buffer":0,
			"byteLength":29100,
			"byteOffset":195820,
			"target":34963
		}
	],
	"buffers":[
		{
			"byteLength":224920,
			"uri":"delete.bin"
		}
	]
}
